PathFileType	4	(X/Y/Z)	Patient4_TMGait_0pt6_02_right_14.trc.trc
DataRate	CameraRate	NumFrames	NumMarkers	Units	OrigDataRate	OrigDataStartFrame	OrigNumFrames
82.352941176471	82.352941176471	4	33	mm	82.352941176471	18	       141
Frame#	Time	Sacral			L.Shoulder			Chest			R.Shoulder			Neck			R.ASIS			L.ASIS			R.Thigh.Superior			R.Thigh.Lateral			R.Thigh.Inferior			R.Patella			L.Thigh.Superior			L.Thigh.Lateral			L.Thigh.Inferior			L.Patella			L.Shank.Superior			L.Shank.Lateral			L.Shank.Inferior			R.Shank.Superior			R.Shank.Lateral			R.Shank.Inferior			R.Heel			R.Midfoot.Superior			R.Midfoot.Lateral			R.Toe			L.Heel			L.Midfoot.Lateral			L.Midfoot.Superior			L.Toe			L.Elbow			L.Wrist			R.Elbow			R.Wrist			
		X1	Y1	Z1	X2	Y2	Z2	X3	Y3	Z3	X4	Y4	Z4	X5	Y5	Z5	X6	Y6	Z6	X7	Y7	Z7	X8	Y8	Z8	X9	Y9	Z9	X10	Y10	Z10	X11	Y11	Z11	X12	Y12	Z12	X13	Y13	Z13	X14	Y14	Z14	X15	Y15	Z15	X16	Y16	Z16	X17	Y17	Z17	X18	Y18	Z18	X19	Y19	Z19	X20	Y20	Z20	X21	Y21	Z21	X22	Y22	Z22	X23	Y23	Z23	X24	Y24	Z24	X25	Y25	Z25	X26	Y26	Z26	X27	Y27	Z27	X28	Y28	Z28	X29	Y29	Z29	X30	Y30	Z30	X31	Y31	Z31	X32	Y32	Z32	X33	Y33	Z33	

18	16.826428571429	740.936650707374	1006.372149020906	448.114203793011	945.796212170985	1414.931671372114	253.440983329347	1034.401968738757	1352.689940737013	424.402842215396	944.883503508477	1444.657233686583	585.499252982099	937.688587346874	1487.303215333343	399.290469533937	959.553505844001	940.542144269783	580.122128613071	962.228479724525	954.512533183214	304.393815433441	1033.320127362832	767.353576716464	557.501897014847	990.724410339515	648.261074857252	631.693379942402	1079.543286299715	609.787096822134	551.328447370555	1115.438794291967	533.487642551466	569.250849930009	969.967326510279	733.645993844662	336.811912058041	858.839687350828	635.622506477837	272.309098391690	920.061247732648	544.733032881946	338.492319695341	905.741416786737	478.372425205386	348.056630574387	875.826536393591	410.959513677649	340.586875120438	776.775278423618	303.051884208194	292.101378003768	820.141549826927	190.101088505417	365.950611863065	1110.064867205383	447.680421922404	581.440895545849	1071.872238284135	329.547156022229	646.345000509328	1151.853206580343	252.185957562333	595.306764005152	1082.220105023855	56.853660957474	567.770461935005	1240.151848762485	142.779983691938	607.563314680181	1167.697953054938	60.124899555246	639.929509918545	1366.778460355853	114.738852267950	629.942305649619	684.858083730976	38.357555594824	414.894065662073	755.682097543093	35.153053716641	331.412032126488	840.080717237355	95.398943025411	355.682402038136	967.305940582227	43.924684828251	323.326067720291	988.399579426515	1069.131194913907	128.574393082735	1193.237576797870	908.752172662267	152.532989843700	788.294516097782	1154.789288401105	731.644791873205	743.088112174931	906.703519649522	794.288651790020	
19	16.838571428571	742.783816775972	1004.531238619367	449.481218978357	946.377829825446	1413.942363005601	255.723280751315	1034.827940295194	1352.039835348670	426.874120045267	944.409478748166	1443.577291023936	587.787910957721	937.579254982776	1486.127992989142	401.564470337786	961.255522616663	939.005612110246	582.198481853522	964.600954548435	953.524003992477	306.375885594288	1034.232340971155	764.799476256303	559.576375291631	989.615015225389	645.085621036296	632.085255686495	1078.901081313405	606.863406346685	552.399623390748	1113.385871560434	530.461198411398	569.264800726125	970.184785138001	731.865550932772	338.415987345634	857.980485001096	634.911836721359	273.468346958786	917.877118018783	543.368936604381	339.827705859269	902.885170835611	476.909051049980	349.218601196214	872.265518385756	409.810111113732	341.529940429768	772.176673847497	303.003346113196	292.671108795234	813.991506311946	189.473944971052	366.393663879920	1108.214562834106	444.237856819257	580.905448854308	1069.530727345914	325.835221870744	644.718458593544	1149.570499414706	248.756921278442	593.543852310063	1079.754772007535	53.944246381586	564.808490376720	1237.586644632216	139.378973545139	605.067125643640	1164.968285522596	57.086845285992	637.223960171818	1364.044361243199	111.278928178160	627.805413825821	677.507826180103	38.267305773748	414.868124071078	748.365887730513	35.092500076080	331.450526788067	832.797787190651	95.287930016118	355.845916658505	960.027137222327	43.636162505824	323.338699898032	988.485930922847	1068.324033894579	130.167752194784	1196.630887843486	912.687480831931	155.413613637611	785.836812287660	1155.015175962406	733.277489475829	740.485568907737	906.621798847082	794.962214701945	
20	16.850714285714	744.822877768557	1002.559465856312	451.068254471090	946.839076737322	1412.943734829235	258.172202027345	1035.218462951396	1351.452050728403	429.501378689203	943.794527047524	1442.394632111171	590.279359323309	937.309240345887	1484.909795900101	404.030835583863	963.323010797985	937.419609204059	584.314095957595	967.262402914197	952.521926232559	308.401712257586	1035.922362165193	762.387020935855	561.625523664305	989.087589057888	641.914323169262	632.215405711846	1078.959044690491	604.074889116946	553.370129535101	1111.854796961781	527.149023573626	569.084302748870	970.728889141090	730.027247837580	339.934861008791	857.376406747918	634.122032536680	274.734242796026	916.113879344733	541.912747646259	341.137086862826	900.487241237126	475.268494027291	350.391205248185	869.041696403782	408.529340401782	342.504303117909	767.741056678747	302.969610513687	293.323641250133	807.889423758138	188.791849784548	366.836241800786	1106.305584475729	440.275047366110	580.137963364071	1066.186445811305	321.940904532126	642.867607755162	1145.529268174929	244.519675841286	591.561438904890	1073.798506541443	51.166184030143	561.813728540206	1232.188100176213	134.684999234344	602.365739358250	1158.704224376811	53.668006305150	634.555624234693	1358.205013724614	105.408117160452	625.629728193997	670.135010072400	38.148570200670	414.812230272023	741.058240970314	34.985968849737	331.486419659454	825.519645513805	95.181738678692	355.985361826128	952.773736788842	43.336113854098	323.343478035050	988.251581878755	1067.385712652225	132.050635774446	1199.283222639683	916.104880060992	158.417356911423	783.931318507257	1154.547493293466	734.832781133598	739.044211985418	905.668272802407	795.481841650914	
21	16.862857142857	747.034684706791	1000.505448875438	452.883660602285	947.197873186124	1411.965665923582	260.790462530567	1035.600539275305	1350.930818206641	432.275633154910	943.101263642632	1441.117047259960	592.979869396944	936.924524896450	1483.681190618290	406.698934906004	965.727990031111	935.818467765160	586.440765051964	970.199050336058	951.545664931446	310.440399542241	1038.278138517111	760.060423692799	563.621553935803	989.055036002166	638.809221164380	632.149592014041	1079.566865391958	601.407271535759	554.232808673996	1110.724681720705	523.622617568617	568.729817197500	971.615708598195	728.177291487116	341.350892561386	857.066163834699	633.260698188640	276.120193927667	914.852987447005	540.378624354530	342.418160589589	898.652349359740	473.444126032073	351.565712952831	866.223328801351	407.120340754736	343.516396077277	763.522350448067	302.981536869755	294.062370443291	801.871080022648	188.076693649496	367.271946183288	1104.361970590946	435.950369391334	579.213052915524	1062.104869798126	317.950707404391	640.917900744080	1140.153434262392	239.689783904899	589.460366729101	1065.103243412468	48.592180827642	558.948651270407	1224.609944369953	129.023930106185	599.547835408425	1149.700888769784	50.054413716305	632.037964333033	1349.998882072240	97.618325470734	623.411096357725	662.738948000126	38.058643925399	414.715000485699	733.763545825891	34.849920561784	331.514140068010	818.270080295367	95.080822828751	356.087191765704	945.555238410236	43.012682300828	323.339273204433	987.714092287575	1066.338651443563	134.227856307939	1201.211585354771	918.942453757840	161.526181570266	782.629145275433	1153.373659942851	736.321848615981	738.767453234827	903.862644728089	795.850894619036	
